<svg xmlns="http://www.w3.org/2000/svg" version="1.1" width="1994" height="416" viewBox="89 141 1994 416">
<title>Papaya Health</title><path d="M0 0 C5.52 4.31 7.26 8.59 8.19 15.29 C7.78 20.67 4.55 24.47 0.95 28.23 C-7.07 36.85 -14.32 45.78 -18.99 56.67 C-18.55 57.25 -18.12 57.83 -17.67 58.43 C0.54 83.5 -0.17 108.89 -4.79 138.42 C-5.5 142.84 -6.24 147.26 -6.99 151.67 C-7.11 152.37 -7.22 153.07 -7.35 153.79 C-16.83 209.82 -28.05 267.04 -65.99 311.67 C-66.33 312.08 -66.33 312.08 -68.07 314.14 C-70.32 316.71 -72.63 319.2 -74.99 321.67 C-75.53 322.23 -76.06 322.8 -76.62 323.38 C-98.65 346.37 -125.31 364.38 -155.99 373.67 C-156.61 373.86 -157.23 374.06 -157.87 374.26 C-188.25 383.83 -221.99 380.82 -250.36 366.53 C-258.69 362.12 -266.02 357.01 -272.99 350.67 C-273.69 350.05 -274.4 349.42 -275.12 348.78 C-292.01 332.99 -302.9 308.43 -304.17 285.44 C-304.72 253.82 -304.72 253.82 -299.99 238.67 C-299.75 237.89 -299.51 237.11 -299.26 236.31 C-293.65 218.84 -285.25 203.13 -273.99 188.67 C-273.8 188.42 -273.8 188.42 -272.83 187.16 C-266.45 178.95 -259.13 171.63 -251.8 164.29 C-251.33 163.82 -250.85 163.34 -250.37 162.85 C-244.75 157.24 -239.02 151.83 -232.99 146.67 C-231.31 145.18 -229.65 143.67 -227.99 142.17 C-225.01 139.48 -222.02 136.8 -218.99 134.17 C-215.13 130.81 -211.33 127.39 -207.54 123.96 C-205.92 122.51 -204.31 121.06 -202.69 119.62 C-197.33 114.83 -192.05 109.96 -186.8 105.04 C-186.47 104.73 -186.47 104.73 -184.78 103.16 C-180.9 99.51 -177.12 95.8 -173.44 91.94 C-171.99 90.67 -171.99 90.67 -169.99 90.67 C-169.66 89.68 -169.33 88.69 -168.99 87.67 C-167.43 86.14 -167.43 86.14 -165.45 84.5 C-160.93 80.67 -156.82 76.53 -152.68 72.29 C-146.4 65.96 -140.13 60.04 -132.99 54.67 C-132.49 54.28 -131.99 53.88 -131.47 53.48 C-119.11 43.79 -104.56 35.63 -88.99 32.67 C-88.69 32.6 -88.69 32.6 -87.2 32.28 C-77.94 30.59 -68.27 31.76 -58.99 32.67 C-58.78 32.33 -58.78 32.33 -57.75 30.64 C-36.19 -4.68 -36.19 -4.68 -26.07 -7.95 C-16.43 -9.71 -7.81 -5.24 0 0 Z " fill="#FFA21F" transform="translate(406.98828125,163.33203125)" />
<path d="M0 0 C0.55 0.43 1.09 0.87 1.65 1.31 C1.57 0.22 1.49 -0.87 1.4 -2 C1.26 -3.86 1.26 -3.86 1.65 -5.69 C4.67 -8.84 7.32 -9.06 11.47 -9.16 C12.22 -9.16 12.97 -9.16 13.74 -9.16 C14.52 -9.16 15.31 -9.17 16.11 -9.18 C17.76 -9.19 19.41 -9.19 21.06 -9.19 C23.58 -9.19 26.09 -9.23 28.61 -9.27 C30.22 -9.28 31.82 -9.28 33.43 -9.28 C33.8 -9.29 33.8 -9.29 35.7 -9.33 C39.62 -9.28 41.82 -8.98 44.67 -6.15 C45.32 -5.34 45.98 -4.52 46.65 -3.69 C46.89 -4.09 46.89 -4.09 48.08 -6.15 C49.52 -7.93 50.32 -8.6 52.57 -9.16 C55 -9.33 57.39 -9.35 59.84 -9.32 C60.28 -9.32 60.28 -9.32 62.54 -9.32 C64.43 -9.32 66.31 -9.31 68.2 -9.28 C71.08 -9.25 73.95 -9.26 76.83 -9.28 C78.67 -9.28 80.5 -9.27 82.34 -9.25 C83.19 -9.26 84.05 -9.26 84.94 -9.27 C88.67 -9.2 91.12 -8.96 94.47 -7.22 C97.54 -3.66 99.09 0.14 100.83 4.48 C101.21 5.38 101.58 6.29 101.97 7.22 C103.17 10.12 104.35 13.03 105.53 15.94 C106.31 17.84 107.1 19.74 107.88 21.64 C111.57 30.59 115.18 39.57 118.72 48.59 C119.02 49.34 119.32 50.1 119.63 50.88 C119.9 51.57 120.17 52.26 120.44 52.97 C120.68 53.57 120.91 54.17 121.15 54.79 C121.65 56.31 121.65 56.31 121.65 58.31 C122.31 58.31 122.97 58.31 123.65 58.31 C123.81 57.8 123.97 57.29 124.14 56.76 C126.25 50.17 128.86 43.85 131.59 37.5 C132.57 35.21 133.55 32.92 134.54 30.63 C134.79 30.04 135.04 29.45 135.3 28.84 C136.92 25.07 138.49 21.28 140.04 17.48 C141.08 14.92 142.14 12.36 143.2 9.8 C143.71 8.57 144.21 7.33 144.7 6.1 C145.39 4.36 146.11 2.64 146.83 0.91 C147.23 -0.07 147.63 -1.06 148.04 -2.08 C150.05 -5.33 152.13 -7.28 155.65 -8.69 C158.81 -9.22 161.9 -9.23 165.1 -9.18 C166 -9.19 166.89 -9.19 167.81 -9.19 C169.69 -9.19 171.58 -9.17 173.46 -9.15 C176.34 -9.12 179.22 -9.13 182.11 -9.15 C183.94 -9.14 185.77 -9.13 187.6 -9.12 C188.03 -9.12 188.03 -9.12 190.22 -9.13 C191.02 -9.12 191.82 -9.1 192.64 -9.09 C193.35 -9.09 194.05 -9.08 194.78 -9.08 C197.24 -8.57 198.14 -7.66 199.65 -5.69 C200.12 -1.41 199.45 1.48 197.59 5.32 C197.36 5.8 197.36 5.8 196.2 8.25 C195.95 8.77 195.7 9.28 195.44 9.81 C194.04 12.69 192.68 15.59 191.32 18.49 C191.03 19.11 190.73 19.74 190.43 20.38 C187.15 27.32 184.06 34.34 180.96 41.36 C173.48 58.32 165.8 75.19 158.02 92.02 C155.65 97.15 153.29 102.28 150.94 107.42 C149.26 111.1 147.57 114.78 145.88 118.45 C145.08 120.2 144.28 121.95 143.48 123.7 C129.31 154.78 129.31 154.78 120.71 163.38 C120.21 163.9 119.7 164.42 119.18 164.96 C106.59 177.7 90.52 184.3 72.71 184.62 C67.17 184.48 62.59 184.02 57.71 181.19 C54.57 175.64 57.25 167.08 58.46 161.19 C58.55 160.75 58.55 160.75 58.97 158.56 C60.14 152.74 61.34 147.62 65.65 143.31 C67.72 142.79 69.81 142.34 71.9 141.94 C79.94 140.22 85.03 137.19 89.65 130.31 C92.89 124.84 95.04 120.78 94.65 114.31 C93.78 111.64 93.78 111.64 92.51 108.85 C92.28 108.33 92.04 107.8 91.8 107.26 C91.29 106.1 90.77 104.94 90.24 103.78 C88.74 100.48 87.29 97.16 85.82 93.85 C85.5 93.11 85.18 92.38 84.84 91.62 C80.29 81.27 75.98 70.82 71.65 60.38 C70.05 56.51 68.44 52.65 66.84 48.79 C66.44 47.83 66.05 46.87 65.64 45.88 C60.01 32.35 54.33 18.83 48.65 5.31 C48.65 5.89 48.65 6.48 48.65 7.08 C48.64 21.25 48.59 35.42 48.52 49.59 C48.49 56.45 48.46 63.3 48.46 70.15 C48.45 76.13 48.43 82.1 48.39 88.08 C48.37 91.24 48.36 94.4 48.37 97.57 C48.38 101.1 48.35 104.63 48.31 108.17 C48.32 109.21 48.33 110.26 48.34 111.33 C48.25 116.83 47.85 120.28 43.92 124.29 C40.66 126.92 37.18 126.51 33.2 126.55 C32.46 126.56 31.72 126.57 30.95 126.58 C29.39 126.59 27.82 126.6 26.25 126.61 C23.86 126.62 21.47 126.67 19.08 126.71 C17.56 126.72 16.03 126.73 14.51 126.74 C13.8 126.76 13.08 126.77 12.35 126.79 C8.64 126.78 6.94 126.49 3.68 124.49 C1.65 122.31 1.65 122.31 1.34 119.06 C1.44 118.15 1.55 117.25 1.65 116.31 C1.24 116.58 1.24 116.58 -0.85 117.92 C-16.25 127.48 -32.29 130.8 -50.18 126.72 C-66.58 122.6 -81.61 112.99 -90.57 98.4 C-100.71 80.97 -104.67 60.99 -99.85 41.12 C-95.09 23.58 -84.94 8.07 -69.35 -1.69 C-47.28 -13.71 -21.09 -15.16 0 0 Z " fill="#242423" transform="translate(997.34765625,305.6875)" />
<path d="M0 0 C14.11 12.94 17.58 31.91 18.52 50.22 C19.95 96.32 2.78 139.38 -26.8 174.02 C-27 174.26 -27 174.26 -28.03 175.47 C-32.56 180.85 -37.4 185.53 -42.8 190.02 C-43.6 190.7 -44.4 191.39 -45.22 192.1 C-69.26 212.4 -98.68 226.24 -130.73 225.3 C-148.49 223.65 -165.16 216.73 -176.88 202.83 C-188.16 186.27 -191.28 167.81 -188.11 148.14 C-181.3 112.52 -153.57 82.49 -126.73 59.67 C-124.51 57.76 -122.34 55.8 -120.18 53.83 C-115.51 49.62 -110.76 45.53 -105.97 41.46 C-102.52 38.52 -99.14 35.52 -95.8 32.45 C-90.29 27.46 -84.45 22.92 -78.56 18.38 C-76.88 17.07 -75.21 15.75 -73.54 14.41 C-52.68 -2.22 -25.16 -17.89 0 0 Z " fill="#FF6930" transform="translate(329.80078125,277.984375)" />
<path d="M0 0 C12.13 9.33 19.78 22.33 24.28 36.78 C24.52 37.55 24.77 38.32 25.02 39.12 C29.5 56.65 26.4 76.32 17.92 92.1 C14.12 98.32 9.62 103.84 4.28 108.78 C4.05 109.01 4.05 109.01 2.9 110.17 C-9.13 121.6 -26.92 126.18 -43.09 126 C-55.56 125.45 -66.38 121.77 -76.72 114.78 C-76.72 115.1 -76.72 115.1 -76.69 116.68 C-76.59 122.59 -76.51 128.51 -76.47 134.42 C-76.44 137.46 -76.4 140.5 -76.35 143.54 C-76.28 147.04 -76.26 150.54 -76.24 154.04 C-76.21 155.13 -76.18 156.21 -76.16 157.33 C-76.16 165.77 -76.16 165.77 -79.13 169.46 C-84.42 174.2 -90.88 173.08 -97.65 173.13 C-99.19 173.15 -100.74 173.18 -102.28 173.22 C-104.52 173.27 -106.75 173.29 -108.99 173.31 C-109.67 173.33 -110.36 173.35 -111.06 173.38 C-115.69 173.36 -118.14 172.23 -121.59 169.15 C-124.28 165.91 -123.87 162.05 -123.87 158.08 C-123.87 157.39 -123.87 156.71 -123.87 156 C-123.88 153.7 -123.88 151.4 -123.89 149.1 C-123.89 147.45 -123.9 145.81 -123.9 144.16 C-123.91 139.68 -123.92 135.2 -123.92 130.72 C-123.93 127.92 -123.93 125.13 -123.94 122.33 C-123.95 113.58 -123.96 104.83 -123.96 96.08 C-123.97 85.97 -123.99 75.86 -124.01 65.76 C-124.04 57.95 -124.05 50.14 -124.05 42.33 C-124.05 37.67 -124.05 33 -124.07 28.33 C-124.09 23.95 -124.09 19.56 -124.08 15.17 C-124.08 13.56 -124.09 11.95 -124.1 10.34 C-124.11 8.14 -124.1 5.94 -124.09 3.74 C-124.1 3.11 -124.11 2.47 -124.12 1.81 C-124.07 -2.34 -123.23 -4.9 -120.72 -8.22 C-116.21 -11.18 -112.53 -11.66 -107.31 -11.61 C-106.62 -11.62 -105.93 -11.62 -105.22 -11.62 C-103.77 -11.62 -102.32 -11.62 -100.87 -11.61 C-98.66 -11.59 -96.46 -11.61 -94.25 -11.63 C-92.83 -11.62 -91.42 -11.62 -90 -11.61 C-89.67 -11.62 -89.67 -11.62 -88.02 -11.63 C-83.78 -11.57 -81.11 -10.79 -77.72 -8.22 C-76.79 -5.81 -76.87 -3.83 -76.72 -1.22 C-76.06 -1.67 -75.39 -2.13 -74.71 -2.61 C-51.17 -18.27 -22.92 -16.15 0 0 Z " fill="#242423" transform="translate(560.724609375,308.21533203125)" />
<path d="M0 0 C16.5 12.35 26.16 28.7 29.69 48.84 C32.36 67.44 27.39 85.8 17 101.34 C6.22 115.7 -9.4 125.11 -27.25 127.81 C-28.5 127.9 -29.75 127.96 -31 128 C-31.83 128.04 -32.65 128.08 -33.5 128.12 C-47.94 128.49 -59.33 124.37 -72 118 C-71.99 118.59 -71.99 119.18 -71.98 119.78 C-71.91 125.91 -71.87 132.05 -71.84 138.18 C-71.82 140.47 -71.8 142.75 -71.77 145.04 C-71.74 148.33 -71.72 151.62 -71.71 154.91 C-71.7 155.42 -71.7 155.42 -71.66 158 C-71.66 163.49 -71.75 167.47 -75 172 C-78.84 175.18 -82.46 175.46 -87.28 175.43 C-87.97 175.44 -88.66 175.44 -89.37 175.45 C-90.82 175.46 -92.27 175.45 -93.72 175.45 C-95.93 175.44 -98.13 175.47 -100.34 175.5 C-101.76 175.5 -103.17 175.5 -104.59 175.5 C-105.24 175.51 -105.9 175.52 -106.57 175.53 C-111.52 175.46 -114.14 174.11 -118 171 C-119.47 168.05 -119.19 165.05 -119.22 161.81 C-119.23 161.44 -119.23 161.44 -119.26 159.55 C-119.29 157.03 -119.32 154.52 -119.35 152 C-119.38 150.21 -119.4 148.42 -119.42 146.62 C-119.5 140.75 -119.56 134.87 -119.62 129 C-119.64 128 -119.65 127.01 -119.66 125.98 C-119.98 95.78 -120.1 65.59 -119.83 35.39 C-119.81 32.69 -119.8 29.99 -119.79 27.29 C-119.77 23.06 -119.73 18.84 -119.67 14.61 C-119.65 13.06 -119.64 11.52 -119.64 9.97 C-119.63 7.87 -119.6 5.77 -119.56 3.67 C-119.57 3.06 -119.57 2.45 -119.57 1.83 C-119.45 -2.62 -118.06 -4.85 -115 -8 C-110.33 -10.34 -103.36 -9.31 -98.17 -9.35 C-96.52 -9.37 -94.87 -9.39 -93.22 -9.43 C-90.84 -9.49 -88.46 -9.51 -86.07 -9.52 C-85.34 -9.55 -84.61 -9.57 -83.85 -9.59 C-80.08 -9.58 -77.84 -9.3 -75.05 -6.64 C-72.96 -3.95 -72.29 -2.36 -72 1 C-71.41 0.54 -70.81 0.08 -70.2 -0.39 C-49.25 -15.9 -21.35 -14.09 0 0 Z " fill="#242422" transform="translate(864,306)" />
<path d="M0 0 C1.94 1.49 1.94 1.49 2.94 2.49 C3.07 1.94 3.07 1.94 3.69 -0.82 C4.23 -3.21 4.77 -4.34 6.5 -6.1 C9.95 -8.09 12.89 -7.96 16.81 -7.95 C17.19 -7.95 17.19 -7.95 19.11 -7.96 C20.72 -7.97 22.32 -7.97 23.92 -7.96 C26.37 -7.95 28.81 -7.98 31.26 -8.01 C32.82 -8.01 34.38 -8.01 35.94 -8.01 C36.3 -8.01 36.3 -8.01 38.14 -8.04 C41.88 -7.99 43.62 -7.71 46.88 -5.67 C49.95 -2.46 50.07 0.16 50.08 4.41 C50.09 5.42 50.09 6.44 50.1 7.48 C50.1 8.04 50.1 8.04 50.1 10.86 C50.11 12.04 50.11 13.23 50.12 14.41 C50.13 17.63 50.14 20.84 50.14 24.06 C50.14 26.07 50.15 28.08 50.15 30.09 C50.17 36.38 50.18 42.67 50.18 48.97 C50.18 56.23 50.2 63.49 50.23 70.75 C50.25 76.36 50.26 81.97 50.26 87.59 C50.27 90.94 50.27 94.29 50.29 97.64 C50.31 100.8 50.31 103.95 50.3 107.1 C50.3 108.81 50.31 110.51 50.33 112.22 C50.27 121.59 50.27 121.59 46.94 125.49 C43.46 128.12 39.48 127.83 35.29 127.86 C34.55 127.87 33.81 127.88 33.06 127.89 C31.5 127.9 29.94 127.91 28.39 127.91 C26.01 127.93 23.64 127.97 21.27 128.03 C19.76 128.03 18.24 128.04 16.73 128.05 C16.02 128.07 15.32 128.09 14.59 128.11 C10.88 128.07 8.72 127.73 5.97 125.13 C3.94 122.49 3.94 122.49 3.63 119.68 C3.73 118.95 3.84 118.23 3.94 117.49 C3.19 118.02 2.44 118.55 1.66 119.1 C-12.86 128.92 -28.37 131.53 -45.62 128.3 C-59.47 125.38 -71.53 119.08 -81.06 108.49 C-81.59 107.96 -82.12 107.44 -82.66 106.9 C-95.66 93.35 -99.72 75.11 -99.53 56.9 C-99.27 48.85 -98.21 41.94 -95.06 34.49 C-94.8 33.85 -94.53 33.21 -94.26 32.55 C-87.29 16.05 -75.77 3.04 -59.18 -4.32 C-39.35 -11.88 -17.91 -12.46 0 0 Z " fill="#242422" transform="translate(688.05859375,304.51171875)" />
<path d="M0 0 C0.16 0.17 0.16 0.17 1 1 C1.27 -0.09 1.54 -1.19 1.81 -2.31 C2.57 -5.41 3.38 -7.11 6 -9 C8.66 -9.47 11.3 -9.44 13.99 -9.43 C14.78 -9.44 15.56 -9.44 16.36 -9.45 C18.02 -9.46 19.68 -9.45 21.33 -9.45 C23.86 -9.44 26.38 -9.47 28.91 -9.5 C30.52 -9.5 32.13 -9.5 33.74 -9.5 C34.49 -9.51 35.25 -9.52 36.02 -9.53 C41.06 -9.46 43.45 -8.63 47 -5 C48.24 -2.53 48.13 -0.89 48.15 1.88 C48.15 2.39 48.15 2.39 48.17 5 C48.17 6.13 48.17 7.27 48.18 8.44 C48.18 9.64 48.19 10.85 48.2 12.05 C48.22 16.01 48.23 19.97 48.24 23.93 C48.24 25.29 48.25 26.65 48.25 28.01 C48.27 34.41 48.28 40.82 48.29 47.22 C48.3 54.61 48.33 62 48.37 69.39 C48.4 75.1 48.41 80.81 48.42 86.52 C48.42 89.93 48.43 93.34 48.45 96.75 C48.48 99.96 48.48 103.17 48.47 106.38 C48.47 108.12 48.49 109.86 48.51 111.59 C48.45 120.1 48.45 120.1 46.16 123.18 C40.95 127.58 33.02 126.3 26.52 126.35 C24.93 126.37 23.33 126.39 21.74 126.43 C19.43 126.49 17.13 126.51 14.82 126.52 C14.11 126.55 13.4 126.57 12.67 126.59 C8.94 126.58 6.81 126.26 4.06 123.61 C2.19 121.24 1.33 119.95 1 117 C0.24 117.47 -0.52 117.94 -1.31 118.43 C-16.58 127.7 -32.36 130.44 -49.88 126.41 C-66.3 122.26 -81.26 112.62 -90.27 98.04 C-100.47 80.59 -103.61 58.38 -98.52 38.73 C-94.81 26.55 -89 17.04 -80 8 C-79.33 7.3 -78.67 6.6 -77.98 5.88 C-57.09 -14.58 -23.31 -17.24 0 0 Z " fill="#242422" transform="translate(1281,306)" />
<path d="M0 0 C0.3 0.17 0.3 0.17 1.8 1.06 C2.2 1.37 2.59 1.68 3 2 C3 2.66 3 3.32 3 4 C3.66 4 4.32 4 5 4 C4.92 3.09 4.84 2.19 4.75 1.25 C5 -2 5 -2 6.54 -4.17 C9.93 -6.69 12.52 -6.6 16.65 -6.57 C17.39 -6.57 18.13 -6.58 18.89 -6.59 C20.44 -6.59 22 -6.59 23.55 -6.58 C25.93 -6.56 28.3 -6.6 30.67 -6.63 C32.18 -6.64 33.7 -6.63 35.21 -6.63 C35.57 -6.64 35.57 -6.64 37.35 -6.67 C40.96 -6.6 43.21 -6.25 45.92 -3.77 C48.91 0.22 49.12 3.89 49.13 8.78 C49.14 9.25 49.14 9.25 49.15 11.61 C49.15 12.62 49.15 13.63 49.15 14.68 C49.15 15.75 49.15 16.83 49.16 17.94 C49.16 20.88 49.17 23.82 49.17 26.76 C49.17 28.59 49.17 30.43 49.17 32.27 C49.18 38.69 49.19 45.11 49.19 51.53 C49.18 57.5 49.2 63.48 49.21 69.46 C49.22 74.59 49.23 79.73 49.23 84.87 C49.23 87.94 49.23 91 49.24 94.07 C49.25 97.49 49.25 100.9 49.24 104.32 C49.25 105.33 49.25 106.35 49.26 107.39 C49.23 113.26 48.87 117.4 45.36 122.28 C42.02 124.71 39.35 124.58 35.31 124.53 C34.57 124.54 33.83 124.54 33.07 124.54 C31.51 124.55 29.95 124.54 28.39 124.52 C26.01 124.5 23.63 124.52 21.24 124.55 C19.72 124.54 18.21 124.54 16.69 124.53 C15.98 124.54 15.27 124.55 14.53 124.56 C11.01 124.49 9.44 124.33 6.54 122.17 C4.53 119.33 4.69 117.4 5 114 C4.52 114.39 4.03 114.77 3.53 115.17 C-10.33 125.94 -23.77 127.28 -41 126 C-46.22 125.28 -51.07 123.83 -56 122 C-56.9 121.67 -57.79 121.35 -58.71 121.01 C-72.86 114.89 -83.85 101.1 -89.71 87.25 C-96.98 68.87 -96.71 48.24 -89 30 C-85.28 21.75 -80.37 15.39 -74 9 C-73.31 8.29 -72.62 7.58 -71.91 6.84 C-52.45 -11.97 -22.61 -14.14 0 0 Z " fill="#FFA31F" transform="translate(1717,310)" />
<path d="M0 0 C0.34 -0 0.34 -0 2.09 -0.02 C3.54 -0.02 4.99 -0.02 6.44 -0.01 C8.65 -0 10.86 -0.03 13.06 -0.06 C14.48 -0.07 15.9 -0.07 17.31 -0.06 C17.64 -0.07 17.64 -0.07 19.29 -0.1 C24.25 -0.02 26.9 1.25 30.72 4.43 C32.69 7.54 32.97 9.93 32.95 13.57 C32.95 14.59 32.95 15.61 32.95 16.66 C32.94 17.76 32.93 18.85 32.92 19.98 C32.92 21.11 32.91 22.23 32.91 23.39 C32.9 26.38 32.88 29.36 32.86 32.35 C32.84 35.4 32.83 38.45 32.82 41.5 C32.8 47.48 32.76 53.46 32.72 59.43 C33.47 59.04 34.22 58.64 35 58.23 C45.32 52.88 54.24 49.87 66.04 50 C67.04 50 68.05 50.01 69.09 50.02 C81.14 50.28 90.81 53.41 100.72 60.43 C101.41 60.91 102.09 61.39 102.8 61.88 C114.29 70.86 120.72 85.3 122.72 99.43 C122.87 102.02 122.88 104.6 122.88 107.2 C122.89 107.95 122.89 108.7 122.9 109.48 C122.91 111.95 122.92 114.43 122.93 116.91 C122.93 118.63 122.94 120.36 122.94 122.09 C122.95 125.71 122.96 129.32 122.96 132.94 C122.97 137.57 122.99 142.19 123.02 146.82 C123.04 150.39 123.04 153.96 123.05 157.52 C123.05 159.23 123.06 160.94 123.07 162.64 C123.09 165.03 123.09 167.41 123.08 169.8 C123.09 170.5 123.1 171.2 123.11 171.93 C123.07 176.24 122.4 178.87 119.72 182.43 C116.23 185.08 112.27 184.74 108.07 184.73 C107.7 184.74 107.7 184.74 105.84 184.75 C104.28 184.75 102.72 184.75 101.17 184.75 C98.8 184.75 96.43 184.77 94.05 184.79 C92.54 184.8 91.02 184.8 89.51 184.8 C88.8 184.81 88.1 184.82 87.37 184.82 C83.04 184.78 80.16 184.33 76.72 181.43 C74.17 177.13 73.35 174.2 73.35 169.11 C73.35 168.81 73.35 168.81 73.34 167.29 C73.34 166 73.34 164.7 73.34 163.41 C73.35 161.35 73.34 159.29 73.33 157.24 C73.29 151.39 73.28 145.55 73.29 139.7 C73.29 136.11 73.27 132.53 73.24 128.94 C73.23 126.93 73.24 124.92 73.25 122.9 C73.23 114.54 72.44 107.25 66.35 101 C61.4 98.05 56.48 96.52 50.72 97.43 C44.8 99.13 39.88 100.87 36.72 106.43 C33.28 113.23 33.28 119.89 33.28 127.37 C33.27 128.61 33.26 129.86 33.24 131.1 C33.21 134.36 33.18 137.62 33.17 140.88 C33.14 146.09 33.1 151.31 33.05 156.52 C33.03 158.32 33.03 160.12 33.02 161.93 C32.88 177.82 32.88 177.82 29.34 182.11 C25.8 185.01 21.72 184.61 17.39 184.64 C16.67 184.64 15.95 184.65 15.22 184.65 C13.7 184.66 12.19 184.67 10.67 184.67 C8.36 184.68 6.05 184.71 3.75 184.75 C2.27 184.75 0.8 184.76 -0.68 184.76 C-1.36 184.77 -2.05 184.79 -2.76 184.8 C-7.06 184.78 -9.81 184.23 -13.28 181.43 C-15.58 177.98 -15.56 174.63 -15.54 170.62 C-15.54 169.93 -15.55 169.24 -15.55 168.54 C-15.56 166.24 -15.56 163.95 -15.55 161.65 C-15.56 160.01 -15.56 158.36 -15.57 156.71 C-15.58 152.24 -15.58 147.77 -15.58 143.3 C-15.58 139.57 -15.58 135.84 -15.59 132.1 C-15.6 123.3 -15.6 114.49 -15.59 105.68 C-15.59 96.6 -15.6 87.52 -15.62 78.43 C-15.64 70.63 -15.64 62.83 -15.64 55.03 C-15.64 50.37 -15.64 45.72 -15.66 41.06 C-15.67 36.68 -15.67 32.3 -15.65 27.91 C-15.65 26.31 -15.65 24.7 -15.66 23.09 C-15.67 20.9 -15.66 18.7 -15.65 16.51 C-15.66 15.87 -15.67 15.24 -15.67 14.59 C-15.62 10.03 -14.59 7.26 -12.28 3.43 C-8.43 0.25 -4.82 -0.02 0 0 Z " fill="#FFA31F" transform="translate(1946.27734375,250.56640625)" />
<path d="M0 0 C1.59 -0.02 3.19 -0.04 4.78 -0.08 C7.09 -0.14 9.39 -0.16 11.7 -0.17 C12.41 -0.2 13.11 -0.22 13.84 -0.24 C18.41 -0.22 21.13 0.69 24.46 3.89 C28.23 8.51 27.91 14.05 27.81 19.68 C27.81 20.47 27.8 21.26 27.8 22.07 C27.78 24.58 27.75 27.09 27.71 29.6 C27.68 32.9 27.65 36.19 27.62 39.49 C27.62 40.27 27.61 41.06 27.61 41.86 C27.59 47.41 27.86 52.86 28.65 58.35 C29.43 57.94 30.2 57.53 31 57.11 C32.05 56.56 33.1 56.02 34.15 55.48 C35.17 54.94 36.19 54.41 37.25 53.86 C48.94 48.35 64.57 48.47 76.84 51.98 C90.9 57.14 101.2 65.84 108.1 79.14 C114.04 92.35 115.12 105.85 115.05 120.14 C115.05 121.69 115.06 123.25 115.06 124.8 C115.06 128.03 115.06 131.26 115.04 134.49 C115.03 138.61 115.04 142.74 115.05 146.86 C115.07 150.06 115.06 153.26 115.05 156.46 C115.05 157.98 115.05 159.5 115.06 161.03 C115.07 163.15 115.06 165.27 115.04 167.39 C115.04 167.7 115.04 167.7 115.06 169.26 C114.99 173.8 113.99 176.57 111.65 180.35 C109.54 182.31 107.93 182.61 105.09 182.66 C104.38 182.67 103.68 182.69 102.95 182.7 C102.57 182.71 102.57 182.71 100.66 182.72 C99.88 182.73 99.09 182.74 98.29 182.75 C96.63 182.76 94.98 182.77 93.32 182.78 C90.79 182.79 88.27 182.84 85.74 182.89 C84.13 182.9 82.52 182.9 80.91 182.91 C80.16 182.93 79.41 182.95 78.63 182.97 C74.83 182.94 72.51 182.69 69.7 180 C66.7 176.12 66.52 173.32 66.49 168.55 C66.49 167.97 66.48 167.39 66.48 166.79 C66.47 165.53 66.46 164.27 66.45 163.01 C66.44 161.01 66.42 159.01 66.4 157 C66.34 151.31 66.28 145.62 66.25 139.93 C66.23 136.44 66.19 132.96 66.15 129.47 C66.14 128.15 66.13 126.83 66.12 125.51 C66.08 108.24 66.08 108.24 61.21 102.71 C56.38 98.33 51.45 96.91 45 97.01 C41.69 97.49 39.15 98.8 36.28 100.48 C34.65 101.35 34.65 101.35 32.65 101.35 C31.94 102.66 31.29 104 30.65 105.35 C30.4 105.84 30.15 106.34 29.89 106.85 C27.19 112.92 27.24 118.97 27.27 125.49 C27.28 127.52 27.27 129.55 27.26 131.58 C27.22 137.33 27.21 143.09 27.22 148.85 C27.22 152.38 27.2 155.92 27.17 159.46 C27.16 161.45 27.17 163.43 27.18 165.42 C27.15 176.63 27.15 176.63 22.65 181.35 C17.88 183.74 10.7 182.7 5.4 182.76 C3.7 182.78 2 182.81 0.3 182.86 C-2.15 182.92 -4.6 182.95 -7.05 182.97 C-7.81 183 -8.57 183.03 -9.34 183.06 C-14.47 183.04 -14.47 183.04 -16.79 181.22 C-20.09 177.37 -21.07 174.3 -20.98 169.21 C-20.98 168.51 -20.99 167.82 -21 167.1 C-21.01 164.78 -21 162.46 -20.98 160.14 C-20.98 158.48 -20.99 156.81 -21 155.14 C-21.02 150.62 -21.01 146.1 -20.99 141.58 C-20.97 136.85 -20.98 132.11 -20.98 127.38 C-20.99 119.43 -20.97 111.49 -20.94 103.54 C-20.91 94.35 -20.91 85.17 -20.93 75.98 C-20.95 67.14 -20.94 58.3 -20.92 49.46 C-20.91 45.7 -20.92 41.94 -20.92 38.18 C-20.93 33.75 -20.92 29.32 -20.89 24.89 C-20.88 23.27 -20.88 21.64 -20.89 20.02 C-20.9 17.8 -20.88 15.58 -20.86 13.36 C-20.87 12.72 -20.88 12.08 -20.89 11.42 C-20.8 6.85 -19.52 4.57 -16.35 1.35 C-11.78 -0.93 -5.07 0.04 0 0 Z " fill="#FFA31F" transform="translate(1366.34765625,250.64990234375)" />
<path d="M0 0 C0.8 -0.01 1.61 -0.03 2.44 -0.04 C2.87 -0.04 2.87 -0.04 5.06 -0.03 C5.95 -0.03 6.85 -0.04 7.77 -0.05 C9.66 -0.05 11.55 -0.05 13.44 -0.04 C16.33 -0.03 19.22 -0.06 22.11 -0.09 C23.95 -0.1 25.78 -0.1 27.62 -0.09 C28.49 -0.1 29.35 -0.11 30.23 -0.13 C33.98 -0.08 36.43 0.12 39.8 1.86 C42.85 5.43 44.42 9.23 46.15 13.57 C46.53 14.47 46.91 15.38 47.29 16.31 C48.49 19.21 49.67 22.12 50.85 25.03 C51.63 26.93 52.42 28.83 53.21 30.73 C56.9 39.68 60.51 48.67 64.05 57.68 C64.34 58.43 64.64 59.19 64.95 59.97 C65.22 60.66 65.49 61.35 65.76 62.06 C66 62.66 66.24 63.26 66.48 63.88 C66.98 65.4 66.98 65.4 66.98 67.4 C67.64 67.4 68.3 67.4 68.98 67.4 C69.13 66.89 69.29 66.38 69.46 65.85 C71.57 59.26 74.19 52.95 76.91 46.59 C77.89 44.3 78.88 42.01 79.86 39.72 C80.11 39.13 80.36 38.54 80.63 37.93 C82.24 34.16 83.81 30.37 85.36 26.57 C86.4 24.01 87.46 21.45 88.52 18.89 C89.03 17.66 89.53 16.42 90.02 15.19 C90.71 13.45 91.43 11.73 92.15 10.01 C92.55 9.02 92.95 8.03 93.37 7.02 C95.37 3.76 97.46 1.81 100.98 0.4 C104.14 -0.13 107.22 -0.13 110.42 -0.09 C111.32 -0.09 112.21 -0.09 113.13 -0.1 C115.02 -0.09 116.9 -0.08 118.78 -0.06 C121.66 -0.03 124.55 -0.04 127.43 -0.05 C129.26 -0.05 131.09 -0.04 132.92 -0.03 C133.36 -0.03 133.36 -0.03 135.54 -0.04 C136.34 -0.03 137.14 -0.01 137.97 0 C138.67 0.01 139.37 0.01 140.1 0.02 C142.56 0.52 143.46 1.43 144.98 3.4 C145.45 7.68 144.77 10.57 142.91 14.41 C142.68 14.9 142.68 14.9 141.52 17.34 C141.27 17.86 141.02 18.37 140.76 18.91 C139.37 21.79 138.01 24.68 136.64 27.58 C136.5 27.89 136.5 27.89 135.75 29.47 C132.48 36.41 129.38 43.43 126.29 50.45 C118.8 67.41 111.13 84.28 103.34 101.11 C100.97 106.24 98.61 111.37 96.26 116.52 C94.58 120.19 92.89 123.87 91.2 127.54 C90.4 129.29 89.6 131.04 88.8 132.79 C74.63 163.87 74.63 163.87 66.04 172.47 C65.53 172.99 65.03 173.51 64.51 174.05 C51.91 186.79 35.84 193.39 18.04 193.72 C12.49 193.57 7.91 193.11 3.04 190.28 C-0.1 184.73 2.57 176.17 3.79 170.28 C3.95 169.41 4.12 168.54 4.29 167.65 C5.46 161.84 6.66 156.71 10.98 152.4 C13.04 151.88 15.13 151.44 17.23 151.03 C25.26 149.31 30.35 146.29 34.98 139.4 C38.22 133.93 40.36 129.87 39.98 123.4 C39.1 120.73 39.1 120.73 37.83 117.94 C37.6 117.42 37.37 116.89 37.13 116.35 C36.61 115.19 36.09 114.03 35.56 112.88 C34.07 109.58 32.61 106.26 31.15 102.94 C30.98 102.57 30.98 102.57 30.16 100.71 C24.7 88.3 19.57 75.74 14.39 63.21 C13.53 61.16 12.68 59.11 11.83 57.05 C11.42 56.05 11 55.05 10.57 54.02 C8.04 47.93 5.46 41.87 2.84 35.82 C2.22 34.39 1.61 32.97 1 31.54 C-0.1 29.01 -1.21 26.48 -2.33 23.95 C-5.17 17.44 -7.87 10.64 -7.02 3.4 C-4.87 0.65 -3.46 0.03 0 0 Z " fill="#242422" transform="translate(1052.02490234375,296.595947265625)" />
<path d="M0 0 C13.56 11.22 21.35 27.57 23 45 C23.17 47.54 23.23 50.08 23.25 52.62 C23.26 52.95 23.26 52.95 23.31 54.57 C23.35 58.85 22.77 61.55 20 65 C16.22 67.65 12.26 67.27 7.83 67.23 C7.43 67.23 7.43 67.23 5.35 67.23 C2.64 67.23 -0.06 67.21 -2.77 67.2 C-4.64 67.19 -6.52 67.19 -8.4 67.19 C-13.34 67.18 -18.28 67.16 -23.21 67.14 C-28.25 67.12 -33.3 67.11 -38.34 67.1 C-48.22 67.08 -58.11 67.04 -68 67 C-67.71 68.11 -67.41 69.22 -67.11 70.37 C-66.95 70.99 -66.78 71.62 -66.61 72.26 C-65.71 74.82 -64.26 76.12 -62.19 77.81 C-61.52 78.38 -60.85 78.94 -60.17 79.52 C-53.09 84.35 -44.02 84.73 -35.75 83.38 C-29.78 81.97 -25.31 78.69 -20.44 75.12 C-16.99 73.54 -14.48 73.79 -11 75 C-7.49 76.74 -4.27 78.85 -1 81 C0.16 81.72 1.33 82.44 2.5 83.15 C3.69 83.91 4.87 84.67 6.06 85.44 C6.64 85.78 7.21 86.13 7.8 86.49 C10.07 88 11.65 89.13 12.69 91.7 C13.25 94.57 13.22 96.56 11.92 99.19 C-0.91 112.62 -18.21 120.64 -36.87 121.2 C-57.48 121.5 -76 119.03 -92 105 C-92.47 104.63 -92.94 104.27 -93.42 103.89 C-97.16 100.93 -99.91 97.83 -102.56 93.88 C-102.95 93.3 -103.33 92.73 -103.73 92.15 C-113.88 76.75 -117.44 58.75 -114.18 40.58 C-110.4 22.19 -101.04 6.71 -85.38 -3.69 C-58.94 -20.51 -24.98 -18.59 0 0 Z " fill="#FFA31F" transform="translate(1598,315)" />
<path d="M0 0 C0.38 0 0.38 0 2.28 0.03 C6.11 0.21 8.46 0.57 11.27 3.3 C14.39 7.23 14.51 10 14.63 14.85 C14.65 15.54 14.67 16.22 14.69 16.93 C14.76 19.12 14.82 21.31 14.88 23.5 C14.92 24.98 14.96 26.47 15.01 27.95 C15.11 31.59 15.21 35.23 15.31 38.88 C16.2 38.89 17.09 38.91 18 38.94 C21.31 39.01 24.61 39.1 27.91 39.19 C29.34 39.23 30.77 39.27 32.19 39.3 C34.25 39.34 36.3 39.4 38.36 39.46 C38.99 39.47 39.63 39.48 40.29 39.5 C44.49 39.64 47.5 40.08 50.54 43.1 C51.71 45.78 51.64 48.46 51.65 51.34 C51.65 51.65 51.65 51.65 51.67 53.24 C51.68 54.56 51.68 55.89 51.68 57.22 C51.69 59.24 51.72 61.25 51.76 63.27 C51.77 64.57 51.77 65.86 51.77 67.15 C51.79 67.75 51.8 68.35 51.82 68.96 C51.77 73.47 50.48 75.73 47.31 78.88 C43.93 80 40.97 80 37.46 79.97 C37.13 79.97 37.13 79.97 35.45 79.97 C33.34 79.96 31.23 79.95 29.12 79.94 C27.69 79.93 26.26 79.93 24.83 79.92 C21.32 79.91 17.82 79.9 14.31 79.88 C14.41 84.43 14.51 88.98 14.63 93.53 C14.67 95.08 14.7 96.63 14.73 98.17 C14.78 100.41 14.84 102.64 14.9 104.88 C14.91 105.56 14.92 106.24 14.93 106.94 C15.13 113.56 16.07 120.58 20.31 125.88 C26 129.47 31.19 129.33 37.77 129.4 C42.44 129.54 45.47 129.92 49.31 132.88 C53.75 137.76 52.53 146.25 52.56 152.38 C52.58 153.41 52.6 154.44 52.62 155.5 C52.67 164.89 52.67 164.89 49.31 168.88 C42.68 175.2 26.13 172.21 17.38 172.01 C3.4 171.41 -10.05 166.28 -19.69 155.88 C-30.27 143.94 -32.87 128.25 -32.79 112.79 C-32.78 111.84 -32.78 110.9 -32.78 109.92 C-32.78 106.93 -32.76 103.93 -32.75 100.94 C-32.74 98.9 -32.74 96.86 -32.74 94.82 C-32.73 89.84 -32.71 84.86 -32.69 79.88 C-33 79.88 -33 79.88 -34.55 79.92 C-35.36 79.93 -36.17 79.94 -37 79.95 C-37.4 79.96 -37.4 79.96 -39.43 79.99 C-42.6 79.83 -44.32 78.96 -46.69 76.88 C-49.39 71.35 -49.02 65.97 -49 59.94 C-49.02 58.87 -49.03 57.79 -49.05 56.69 C-49.06 46.49 -49.06 46.49 -45.69 41.88 C-42.69 39.99 -40.45 39.65 -36.94 39.75 C-36.54 39.76 -36.54 39.76 -34.52 39.8 C-33.91 39.83 -33.31 39.85 -32.69 39.88 C-32.7 39.45 -32.7 39.45 -32.74 37.32 C-32.79 34.17 -32.82 31.02 -32.85 27.87 C-32.87 26.51 -32.89 25.15 -32.91 23.79 C-33.22 7.7 -33.22 7.7 -27.95 1.98 C-24.86 0.47 -21.94 0.26 -18.56 0.12 C-18.22 0.11 -18.22 0.11 -16.47 0.03 C-10.98 -0.18 -5.49 -0.17 0 0 Z " fill="#FFA31F" transform="translate(1871.6875,264.125)" />
<path d="M0 0 C0.64 0.01 1.28 0.02 1.94 0.03 C3.3 0.06 4.66 0.09 6.01 0.13 C7.44 0.17 8.87 0.2 10.3 0.21 C12.45 0.24 14.6 0.3 16.75 0.38 C17.08 0.38 17.08 0.38 18.76 0.39 C22.33 0.56 24.39 1.04 27.02 3.55 C30.23 7.58 30.27 10.93 30.27 15.85 C30.27 16.54 30.27 17.22 30.27 17.92 C30.28 20.21 30.28 22.49 30.29 24.78 C30.29 26.42 30.3 28.05 30.3 29.69 C30.31 34.14 30.32 38.6 30.33 43.05 C30.33 45.83 30.33 48.61 30.34 51.39 C30.35 60.09 30.36 68.79 30.36 77.49 C30.37 87.53 30.39 97.58 30.41 107.62 C30.44 115.39 30.45 123.15 30.45 130.91 C30.45 135.55 30.45 140.19 30.47 144.82 C30.49 149.18 30.49 153.55 30.48 157.91 C30.48 159.51 30.49 161.11 30.5 162.71 C30.51 164.9 30.5 167.08 30.49 169.27 C30.5 169.9 30.51 170.53 30.52 171.19 C30.46 176.43 28.78 179.53 25.12 183.19 C23.51 183.45 23.51 183.45 21.56 183.48 C20.84 183.49 20.11 183.5 19.36 183.52 C18.57 183.52 17.79 183.52 16.98 183.52 C16.57 183.53 16.57 183.53 14.53 183.54 C12.81 183.55 11.1 183.56 9.39 183.56 C6.77 183.56 4.15 183.6 1.53 183.64 C-0.13 183.64 -1.8 183.65 -3.46 183.65 C-4.24 183.66 -5.03 183.68 -5.83 183.69 C-9.53 183.66 -11.3 183.61 -14.34 181.35 C-17.06 177.52 -17.02 174 -17.02 169.49 C-17.03 168.8 -17.03 168.12 -17.03 167.42 C-17.04 165.12 -17.05 162.82 -17.05 160.52 C-17.06 158.87 -17.06 157.23 -17.07 155.58 C-17.09 150.17 -17.1 144.76 -17.11 139.36 C-17.12 137.49 -17.12 135.63 -17.13 133.77 C-17.14 125.02 -17.16 116.28 -17.17 107.53 C-17.18 97.43 -17.2 87.34 -17.24 77.24 C-17.27 69.44 -17.29 61.63 -17.29 53.83 C-17.29 49.17 -17.3 44.5 -17.33 39.84 C-17.35 35.46 -17.36 31.07 -17.35 26.69 C-17.35 25.08 -17.35 23.47 -17.37 21.86 C-17.38 19.66 -17.38 17.47 -17.36 15.27 C-17.37 14.63 -17.38 14 -17.4 13.35 C-17.32 8.4 -15.91 5.92 -12.88 2.19 C-8.64 0.14 -4.63 -0.1 0 0 Z " fill="#FFA31F" transform="translate(1787.875,250.8125)" />
<path d="M0 0 C14.21 10.2 20.67 25.73 23.48 42.46 C29.95 87.83 16.31 136.39 -10.51 173.2 C-12.46 175.67 -14.47 178.07 -16.52 180.46 C-17.49 181.62 -18.46 182.78 -19.43 183.93 C-27.75 193.79 -36.32 202.54 -46.52 210.46 C-46.77 210.66 -46.77 210.66 -48.04 211.66 C-74.44 232.19 -106.9 243.88 -140.48 240.06 C-153.19 238.21 -165.94 232 -175.52 223.46 C-176.1 222.95 -176.69 222.45 -177.3 221.92 C-190.61 209.6 -196.38 191.91 -197.77 174.27 C-198.34 147.34 -186.63 123.34 -170.52 102.46 C-170.17 102.01 -170.17 102.01 -168.41 99.71 C-163.85 93.97 -158.94 88.58 -153.95 83.21 C-153.65 82.88 -153.65 82.88 -152.09 81.21 C-148.39 77.27 -144.54 73.64 -140.44 70.12 C-137.56 67.64 -134.79 65.05 -132.02 62.46 C-127.25 58.04 -122.45 53.69 -117.52 49.46 C-117.03 49.04 -116.55 48.63 -116.05 48.2 C-113.11 45.67 -110.16 43.15 -107.21 40.63 C-104.83 38.59 -102.46 36.54 -100.1 34.48 C-35.6 -21.78 -35.6 -21.78 0 0 Z M-41.52 3.46 C-42.45 3.78 -43.38 4.1 -44.34 4.42 C-63.11 11.5 -78.84 26.15 -93.86 39.04 C-95.56 40.5 -97.27 41.95 -98.98 43.4 C-106.02 49.37 -112.87 55.49 -119.62 61.78 C-123.18 65.09 -126.85 68.27 -130.52 71.46 C-142.44 81.85 -153.98 92.8 -163.52 105.46 C-163.92 105.99 -164.32 106.52 -164.73 107.07 C-182.39 130.59 -193.22 155.91 -189.12 185.96 C-185.9 201.29 -176.2 215.34 -163.2 223.9 C-143.14 235.56 -121.17 235.23 -99.17 229.89 C-77.29 223.97 -58.05 211.73 -41.59 196.38 C-39.88 194.8 -38.15 193.34 -36.33 191.9 C-32.6 188.81 -29.59 185.18 -26.52 181.46 C-26.07 180.93 -25.62 180.39 -25.16 179.84 C-18.56 171.92 -12.56 163.93 -7.41 155 C-6.53 153.49 -5.61 152 -4.68 150.51 C15.34 117.84 23.33 71.76 14.48 34.46 C11.57 23.19 5.51 12.23 -4.52 5.9 C-6.16 5.04 -7.83 4.23 -9.52 3.46 C-9.88 3.29 -9.88 3.29 -11.73 2.44 C-21.59 -1.46 -31.75 0.07 -41.52 3.46 Z " fill="#FFFFFF" transform="translate(330.515625,269.5390625)" />
<path d="M0 0 C5.52 4.31 7.26 8.59 8.19 15.29 C7.78 20.67 4.55 24.47 0.95 28.23 C-6.79 36.54 -13.96 45.43 -18.99 55.67 C-22.28 54.23 -24.47 52.4 -27.05 49.92 C-36.16 41.67 -47.47 37.46 -58.99 33.67 C-37.99 -4.08 -37.99 -4.08 -26.07 -7.96 C-16.42 -9.7 -7.82 -5.24 0 0 Z " fill="#2A6049" transform="translate(406.98828125,163.33203125)" />
<path d="M0 0 C5.44 4.24 8.32 8.79 9.81 15.53 C10.75 24.52 10.12 32.36 4.62 39.71 C-0.65 45.53 -7.57 48.95 -15.31 49.75 C-23.81 50.1 -29.96 47.9 -36.5 42.46 C-42.7 36.5 -45.28 30.59 -45.69 22.03 C-45.39 14.5 -42.73 6.77 -37.19 1.53 C-24.95 -6.82 -12.75 -8.57 0 0 Z " fill="#FFFFFF" transform="translate(681.19140625,342.47265625)" />
<path d="M0 0 C6.5 4.68 11.4 9.98 13 18 C13.83 26.56 12.74 34.06 7.46 41.04 C2.22 46.68 -4.29 50.31 -11.97 51.24 C-19.62 51.51 -27.21 49.42 -33.38 44.75 C-38.8 39.68 -42.07 33.31 -42.34 25.91 C-42.48 17.11 -41.21 10.73 -35.17 3.94 C-25.39 -5.34 -11.66 -7.38 0 0 Z " fill="#FFFFFF" transform="translate(834,341)" />
<path d="M0 0 C7.88 4.77 12.42 10.72 14.7 19.77 C15.79 27.18 14.15 34.16 10.25 40.56 C5.27 46.68 -0.91 51.32 -8.94 52.25 C-17.1 53.08 -24.53 51.38 -31.27 46.59 C-37.52 40.93 -40.95 33.58 -41.38 25.12 C-40.88 16.85 -37.36 9.25 -31.31 3.62 C-22.1 -3.51 -10.48 -5.39 0 0 Z " fill="#FFFFFF" transform="translate(1267.9375,339.75)" />
<path d="M0 0 C7.16 4.34 11.23 9.29 14.06 17.25 C15.76 24.49 15.61 31.93 11.77 38.45 C6.24 46.16 0.17 49.75 -8.94 52.25 C-16.01 53.4 -23.07 51.17 -29.12 47.5 C-35.55 42.77 -39.31 37.06 -40.94 29.25 C-42 21.59 -39.66 13.79 -35.08 7.59 C-26.31 -2.66 -12.19 -6.27 0 0 Z " fill="#FFFFFF" transform="translate(524.9375,339.75)" />
<path d="M0 0 C7.59 4.28 11.69 9.89 14.09 18.21 C15.55 25.3 14.88 32.03 11.56 38.5 C6.15 46.39 -0.16 50.48 -9.44 52.5 C-17.25 53.56 -25.5 50.99 -31.81 46.31 C-36.51 41.94 -40.19 35.04 -40.64 28.64 C-40.78 18.7 -39.6 11.78 -32.57 4.33 C-23.13 -3.77 -11.22 -5.07 0 0 Z " fill="#FFFFFF" transform="translate(983.4375,339.5)" />
<path d="M0 0 C0.28 0.2 0.28 0.2 1.67 1.19 C1.95 1.37 1.95 1.37 3.34 2.29 C8.49 6.05 10.7 11.28 12.67 17.19 C13.52 25.87 12.92 32.94 7.67 40.19 C2.35 46.31 -3.55 49.48 -11.58 50.47 C-18.83 50.78 -25.4 49 -31.14 44.5 C-35.87 40.12 -39.02 33.85 -39.57 27.41 C-39.76 19.07 -39.24 11.68 -33.53 5.12 C-31.55 3.29 -29.55 1.72 -27.33 0.19 C-27.07 0.01 -27.07 0.01 -25.75 -0.9 C-18.5 -4.87 -6.9 -4.23 0 0 Z " fill="#FFFFFF" transform="translate(1707.328125,345.80859375)" />
<path d="M0 0 C3.81 3.32 6.63 7.08 8 12 C8 12.99 8 13.98 8 15 C-7.51 15 -23.02 15 -39 15 C-36.03 6.08 -34.62 2.14 -26.78 -2.2 C-18.18 -6.05 -7.93 -4.75 0 0 Z " fill="#FFFFFF" transform="translate(1568,339)" />
<path d="M0 0 C3.71 1.65 5.85 3.57 8 7 C9.87 12.6 9.65 18.06 7.04 23.39 C4.52 27.28 1.46 29.49 -2.88 31 C-7.58 31 -11.79 29.98 -15.36 26.78 C-18.45 22.75 -19.36 18 -19 13 C-17.38 7.59 -14.67 4.07 -10 1 C-6.79 -0.6 -3.52 -0.38 0 0 Z " fill="#242322" transform="translate(295,362)" />
<path d="M0 0 C3.06 2.19 4.79 4.38 6 8 C6.49 12.65 6.9 17.29 4.31 21.38 C0.23 26.01 -2.78 28.62 -9.01 29.1 C-13.58 28.87 -16.3 26.75 -19.31 23.5 C-22.23 19.18 -22.8 15.07 -22 10 C-19.84 4.97 -17.11 1.23 -12 -1 C-7.61 -2.39 -4.22 -1.71 0 0 Z " fill="#242322" transform="translate(224,380)" />
<path d="M0 0 C4.18 3.27 6.06 7.54 6.98 12.69 C7.02 17.34 4.88 21.07 1.68 24.35 C-2.43 27.77 -5.47 28.35 -10.68 28.28 C-14.25 27.85 -16.52 26.57 -19 24 C-21.85 19.73 -22.82 16.02 -22 11 C-19.75 4.74 -15.9 1.42 -10.06 -1.44 C-6.15 -2.16 -3.52 -1.85 0 0 Z " fill="#242322" transform="translate(286,399)" />
<path d="M0 0 C3.47 1.7 5.42 4.03 7.38 7.31 C8.56 12.42 8.84 16.93 6.5 21.75 C3.93 25.71 0.5 27.73 -4 29 C-8.55 29.29 -12.52 27.91 -16 25 C-18.68 21.31 -20.38 17.62 -20.19 13 C-19.24 7.92 -15.69 4.42 -12 1 C-8.27 -0.87 -4.06 -0.55 0 0 Z " fill="#242322" transform="translate(228,444)" />
<path d="M0 0 C3.5 2.62 5.21 5.67 6 9.94 C6.32 14.87 4.89 18.71 1.75 22.51 C-1.31 25.69 -3.38 27.15 -7.75 27.25 C-12.01 27.18 -14.46 26.39 -18 24 C-21.23 20.34 -21.47 16.9 -21.28 12.21 C-20.57 6.64 -17.75 3.4 -13.6 -0.02 C-9.04 -2.82 -4.72 -2.03 0 0 Z " fill="#242422" transform="translate(288,328)" />
<path d="M0 0 C3.05 2.57 5.7 5.89 6.27 9.92 C6.51 15.27 5.8 18.46 2.35 22.62 C-0.43 25.46 -2.32 25.91 -6.25 26.44 C-11.8 26.28 -15.98 22.77 -20 19.25 C-21.65 15.54 -21.63 11.98 -21 8 C-19.36 4.09 -16.64 1.16 -13 -1 C-8.43 -2.51 -4.42 -1.76 0 0 Z " fill="#242322" transform="translate(253,395)" />
<path d="M0 0 C4.2 2.77 5.34 5.36 6.69 10.12 C7.15 14.68 5.46 18.23 2.75 21.81 C-0.35 24.54 -3.62 26.02 -7.75 26.31 C-11.86 26.03 -15.16 24.51 -18.25 21.81 C-20.79 18.38 -21.51 14.97 -21.25 10.75 C-20.48 6.45 -18.53 3.63 -15.25 0.81 C-10.22 -2.1 -5.29 -1.93 0 0 Z " fill="#242422" transform="translate(194.25,449.1875)" />
<path d="M0 0 C3.69 1.5 5.67 3.51 7.88 6.81 C9.64 11.82 9.67 15.2 7.81 20.19 C5.48 23.81 2.84 26.08 -1 28 C-5.93 28.47 -8.75 28.16 -12.71 25.13 C-15.49 22.68 -16.78 20.76 -17.81 17.19 C-18.04 13.34 -17.84 10.43 -16 7 C-11.34 2 -7.06 -1.04 0 0 Z " fill="#242322" transform="translate(203,415)" />
<path d="M0 0 C3.51 2.17 5.79 4.39 7.38 8.28 C8.07 12.4 7.95 15.9 5.76 19.53 C2.98 23.09 -0.05 25.83 -4.61 26.63 C-9.07 26.82 -12.04 26.14 -15.62 23.28 C-18.27 20.62 -19.35 17.98 -19.75 14.21 C-19.46 9.9 -17.27 6.04 -14.34 2.92 C-10.26 -0.5 -5.11 -2.27 0 0 Z " fill="#242322" transform="translate(257.6171875,425.71875)" />
<path d="M0 0 C2.75 2.5 4.8 5.44 5.27 9.17 C5.58 16.99 5.58 16.99 2.75 20.5 C-0.5 23.71 -2.77 24.86 -7.38 25.38 C-12.35 25.23 -15.31 22.58 -18.81 19.31 C-20.7 15.64 -21.23 12.11 -21 8 C-19.71 4.04 -17.82 1.61 -14.5 -0.88 C-8.83 -3.43 -5.45 -2.94 0 0 Z " fill="#242322" transform="translate(244,355)" />
<path d="M0 0 C3.82 2.41 6.56 4.67 8 9 C8.64 13.7 8.61 17.76 6.06 21.88 C2.86 25.76 -1.04 27.46 -6 28 C-10.01 27.43 -12.89 25.55 -15.44 22.44 C-17.85 18.24 -17.74 13.67 -17 9 C-15.63 5.31 -13.47 3.31 -10.19 1.12 C-6.64 -0.13 -3.67 -1 0 0 Z " fill="#242322" transform="translate(266,368)" />
<path d="M0 0 C3.38 2.18 5.81 4.11 7 8 C7.58 12.17 7.56 15.66 5.31 19.31 C2.86 22.46 0.3 24.52 -3.7 25.35 C-6.36 25.57 -8.22 25.52 -10.49 24.02 C-14.16 20.5 -16.07 17.25 -16.38 12.12 C-16.25 7.81 -14.95 5.11 -12 2 C-8.02 -1.34 -4.79 -1.62 0 0 Z " fill="#242322" transform="translate(229,415)" />
<path d="M0 0 C2.75 1.8 4.53 3.05 6 6 C6.41 10.39 6.57 12.13 4.12 15.88 C1.44 18.56 0.55 18.94 -3.25 19.38 C-7.02 19.31 -9.13 18.06 -11.83 15.49 C-13.77 13.01 -14.06 11.11 -14 8 C-11.23 1.73 -6.99 -1.45 0 0 Z " fill="#242322" transform="translate(260,341)" />
</svg>